Coordinates
version=1
nRows=16
nColumns=38
inDegrees=no

Units are S.I. units (second, meters, Newtons, ...)
If the header above contains a line with 'inDegrees', this indicates whether rotational values are in degrees (yes) or radians (no).

endheader
time	pelvis_tilt	pelvis_list	pelvis_rotation	pelvis_tx	pelvis_ty	pelvis_tz	hip_flexion_r	hip_adduction_r	hip_rotation_r	knee_angle_r	ankle_angle_r	subtalar_angle_r	mtp_angle_r	hip_flexion_l	hip_adduction_l	hip_rotation_l	knee_angle_l	ankle_angle_l	subtalar_angle_l	mtp_angle_l	lumbar_extension	lumbar_bending	lumbar_rotation	arm_flex_r	arm_add_r	arm_rot_r	elbow_flex_r	pro_sup_r	wrist_flex_r	wrist_dev_r	arm_flex_l	arm_add_l	arm_rot_l	elbow_flex_l	pro_sup_l	wrist_flex_l	wrist_dev_l
1.17	-0.175687	0.0442684	-0.147046	1.12293	0.946795	-0.331418	0.808209	0.131633	0.0759007	-2.19502	0.153902	-0.0357565	-0.0276456	0.298171	0.115859	-0.00633699	-0.83226	0.365065	-0.0730814	-0.0679285	-0.174617	-0.0556435	-0.117096	-0.614538	-0.209234	-0.0713984	1.72282	1.73627	-0.00115532	0.0049211	-0.217656	-0.289761	-0.222009	2.07948	1.59374	0.0221798	0.0340483
1.18	-0.18922	0.0258089	-0.147862	1.12617	0.950972	-0.3313	0.866261	0.138877	0.0499415	-2.14211	0.171015	-0.0357565	-0.0276456	0.234755	0.097497	-0.00447271	-0.772263	0.323423	-0.0730814	-0.0679285	-0.154524	-0.0269272	-0.133426	-0.664339	-0.211986	-0.0935661	1.77702	1.73892	-0.00115532	0.0049211	-0.209131	-0.267503	-0.211908	2.11704	1.60006	0.0221798	0.0340483
1.19	-0.205455	0.00687634	-0.147626	1.12987	0.955453	-0.331195	0.92072	0.145818	0.0222379	-2.07831	0.18689	-0.0357565	-0.0276456	0.174589	0.0773002	-0.00563427	-0.708858	0.2643	-0.0730814	-0.0679285	-0.131113	0.00337403	-0.147133	-0.717719	-0.213437	-0.117351	1.83608	1.73875	-0.00115532	0.0049211	-0.200479	-0.248799	-0.194586	2.15712	1.60884	0.0221798	0.0340483
1.2	-0.224143	-0.0118035	-0.147214	1.13383	0.959972	-0.331042	0.971235	0.15379	-0.00460193	-2.00479	0.201619	-0.0357565	-0.0276456	0.119268	0.0561775	-0.00976556	-0.644954	0.189358	-0.0730814	-0.0679285	-0.105039	0.0344101	-0.157901	-0.772997	-0.21337	-0.141794	1.89704	1.7353	-0.00115532	0.0049211	-0.191445	-0.234363	-0.170394	2.19799	1.61984	0.0221798	0.0340483
1.21	-0.244875	-0.0295006	-0.14746	1.13783	0.964297	-0.330788	1.01738	0.16373	-0.0282542	-1.9224	0.215299	-0.0357565	-0.0276456	0.069991	0.035295	-0.0160482	-0.58341	0.10158	-0.0730814	-0.0679285	-0.0771028	0.0652765	-0.165545	-0.828419	-0.211847	-0.165784	1.95747	1.72848	-0.00115532	0.0049211	-0.182082	-0.224607	-0.140216	2.23831	1.63234	0.0221798	0.0340483
1.22	-0.267026	-0.045527	-0.148981	1.14171	0.968258	-0.330408	1.05848	0.175953	-0.0469418	-1.83155	0.228083	-0.0357565	-0.0276456	0.0274421	0.0160349	-0.0228188	-0.527001	0.00526218	-0.0730814	-0.0679285	-0.0483022	0.0950365	-0.170059	-0.882203	-0.209154	-0.188194	2.01546	1.71866	-0.00115532	0.0049211	-0.172652	-0.219664	-0.105304	2.27702	1.6453	0.0221798	0.0340483
1.23	-0.289695	-0.0592833	-0.152063	1.14533	0.971754	-0.329923	1.0935	0.190083	-0.0595545	-1.73229	0.240183	-0.0357565	-0.0276456	-0.00828273	-0.000100472	-0.0276986	-0.478361	-0.0941587	-0.0730814	-0.0679285	-0.0198646	0.122751	-0.171639	-0.932565	-0.205729	-0.208001	2.06957	1.70671	-0.00115532	0.0049211	-0.163532	-0.219419	-0.0671236	2.3133	1.65746	0.0221798	0.0340483
1.24	-0.311703	-0.0702948	-0.156621	1.14862	0.974734	-0.329394	1.12103	0.205164	-0.0656186	-1.62442	0.251846	-0.0357565	-0.0276456	-0.0376648	-0.011637	-0.0279555	-0.439929	-0.190509	-0.0730814	-0.0679285	0.00676928	0.147529	-0.170659	-0.977774	-0.202081	-0.224392	2.11875	1.69396	-0.00115532	0.0049211	-0.155136	-0.223541	-0.0272096	2.34646	1.66754	0.0221798	0.0340483
1.25	-0.331686	-0.0782028	-0.162244	1.15157	0.977184	-0.328915	1.13939	0.219907	-0.0651515	-1.50772	0.263281	-0.0357565	-0.0276456	-0.0616547	-0.0173179	-0.0210671	-0.413894	-0.277516	-0.0730814	-0.0679285	0.0300215	0.168609	-0.167599	-1.01621	-0.198716	-0.236836	2.16226	1.68194	-0.00115532	0.0049211	-0.147867	-0.231502	0.01294	2.37583	1.67446	0.0221798	0.0340483
1.26	-0.348256	-0.082923	-0.168313	1.15419	0.979105	-0.328587	1.14688	0.232985	-0.0584618	-1.38228	0.274583	-0.0357565	-0.0276456	-0.0814629	-0.0162647	-0.00540378	-0.402106	-0.349672	-0.0730814	-0.0679285	0.0483352	0.185386	-0.162972	-1.0465	-0.196094	-0.245118	2.19959	1.67217	-0.00115532	0.0049211	-0.142096	-0.242601	0.0519481	2.40069	1.67753	0.0221798	0.0340483
1.27	-0.36014	-0.0846291	-0.174149	1.15654	0.980504	-0.328487	1.14215	0.243306	-0.0460283	-1.24886	0.285632	-0.0357565	-0.0276456	-0.0982863	-0.00819641	0.0191446	-0.405962	-0.403166	-0.0730814	-0.0679285	0.0603978	0.197532	-0.157241	-1.06757	-0.194606	-0.24933	2.23042	1.66582	-0.00115532	0.0049211	-0.138155	-0.255974	0.0886198	2.42029	1.67666	0.0221798	0.0340483
1.28	-0.36641	-0.0837384	-0.179128	1.15872	0.981362	-0.32864	1.1246	0.250182	-0.0285113	-1.10921	0.296005	-0.0357565	-0.0276456	-0.113045	0.0063966	0.0508117	-0.426283	-0.436582	-0.0730814	-0.0679285	0.0653559	0.205085	-0.150776	-1.07884	-0.194575	-0.24983	2.25462	1.66349	-0.00115532	0.0049211	-0.136339	-0.270632	0.12198	2.43381	1.6724	0.0221798	0.0340483
1.29	-0.366665	-0.0808857	-0.182763	1.1608	0.981658	-0.329025	1.09466	0.253373	-0.00687245	-0.966407	0.304898	-0.0357565	-0.0276456	-0.12617	0.0261741	0.0860481	-0.463227	-0.451087	-0.0730814	-0.0679285	0.0629962	0.208496	-0.143847	-1.08022	-0.196268	-0.247166	2.27225	1.6652	-0.00115532	0.0049211	-0.136897	-0.285498	0.151291	2.44052	1.66586	0.0221798	0.0340483
1.3	-0.361133	-0.0768653	-0.184751	1.16285	0.981327	-0.329563	1.0541	0.253046	0.0174842	-0.82497	0.31113	-0.0357565	-0.0276456	-0.137505	0.0490212	0.120111	-0.516275	-0.449994	-0.0730814	-0.0679285	0.0538307	0.208592	-0.136625	-1.0721	-0.199903	-0.241981	2.28347	1.67029	-0.00115532	0.0049211	-0.140003	-0.299471	0.176057	2.43974	1.65848	0.0221798	0.0340483
1.31	-0.350719	-0.0725983	-0.185003	1.16491	0.980278	-0.33015	1.006	0.249676	0.0426586	-0.690887	0.313264	-0.0357565	-0.0276456	-0.146342	0.0723048	0.147996	-0.584292	-0.437852	-0.0730814	-0.0679285	0.0390317	0.20641	-0.129194	-1.05528	-0.205655	-0.234904	2.28858	1.67764	-0.00115532	0.0049211	-0.145717	-0.311505	0.195995	2.43097	1.65177	0.0221798	0.0340483
1.32	-0.336787	-0.0688269	-0.183615	1.16692	0.978408	-0.33069	0.954606	0.243987	0.0663328	-0.571344	0.309877	-0.0357565	-0.0276456	-0.151583	0.0931793	0.165422	-0.665638	-0.419394	-0.0730814	-0.0679285	0.0202709	0.203115	-0.12154	-1.03081	-0.213647	-0.226448	2.2879	1.68578	-0.00115532	0.0049211	-0.153951	-0.320687	0.211004	2.41389	1.64699	0.0221798	0.0340483
